<svg width="17.41" height="17.83" viewBox="0 0 24 24" fill="none" xmlns="http://www.w3.org/2000/svg"><path fill-rule="evenodd" clip-rule="evenodd" d="M0 3.7255c0-.79.3082-1.5477.857-2.1063.5487-.5587 1.293-.8725 2.069-.8725h17.5566c.7761 0 1.5203.3138 2.0691.8725.5487.5586.857 1.3162.857 2.1063V21.598c0 .7901-.3083 1.5477-.857 2.1063-.5488.5587-1.293.8725-2.0691.8725H2.926c-.776 0-1.5203-.3138-2.069-.8725C.3082 23.1457 0 22.3881 0 21.598V3.7255zm13.065 6.8332l-3.3504.4275-.12.566.6584.1236c.4301.1042.515.2621.4213.6985l-1.0797 5.1652c-.2838 1.3359.1536 1.9645 1.1822 1.9645.7973 0 1.7234-.3754 2.1433-.8907l.1288-.6196c-.2926.2622-.7199.3664-1.0037.3664-.4023 0-.5486-.2874-.4448-.7938l1.4646-7.0076zm-1.3607-1.6204c.388 0 .7602-.157 1.0346-.4362a1.5034 1.5034 0 00.4285-1.0532c0-.395-.1542-.7738-.4285-1.0531a1.4503 1.4503 0 00-1.0346-.4363 1.45 1.45 0 00-1.0345.4363 1.503 1.503 0 00-.4285 1.0531c0 .395.1541.7738.4285 1.0532a1.45 1.45 0 001.0345.4362z" fill="#363636"/></svg>