      <svg
        id="Layer_1"
        data-name="Layer 1"
        xmlns="http://www.w3.org/2000/svg"
        height="32px"
        width="32px"
        viewBox="0 0 354.8061 303.3799"
      >
        <title>Paw</title>
        <path
          d="M388.4166,441.0073a7.1735,7.1735,0,0,0,4.1182-.0443c13.3506-4.8024,87.7383,23.8317,118.0043-19.0091,36.38-51.4953-32.9184-51.6617-45.0227-102.5021-11.5123-48.354-59.8657-57.1721-74.6966-56.9455-14.831-.2266-63.1844,8.5915-74.6967,56.9455-12.1042,50.84-80.3655,49.9135-45.0226,102.5021C299.39,464.0471,372.4444,437.2254,388.4166,441.0073Z"
          transform="translate(-211.2243 -144.1041)"
          style="fill:#f9f9f9;stroke:#000;stroke-miterlimit:10;stroke-width:15px"
        />
        <ellipse
          cx="253.6377"
          cy="280.0849"
          rx="38.286"
          ry="56.2171"
          transform="translate(-293.1923 -37.6523) rotate(-20.481)"
          style="fill:#f9f9f9;stroke:#000;stroke-miterlimit:10;stroke-width:15px"
        />
        <ellipse
          cx="337.5282"
          cy="200.9862"
          rx="38.0644"
          ry="55.8916"
          transform="translate(-242.5915 -78.1622) rotate(-10.6658)"
          style="fill:#f9f9f9;stroke:#000;stroke-miterlimit:10;stroke-width:15px"
        />
        <ellipse
          cx="448.3051"
          cy="201.0603"
          rx="55.843"
          ry="38.0312"
          transform="translate(-43.4781 460.304) rotate(-79.3342)"
          style="fill:#f9f9f9;stroke:#000;stroke-miterlimit:10;stroke-width:15px"
        />
        <ellipse
          cx="523.6195"
          cy="280.0873"
          rx="56.2137"
          ry="38.2837"
          transform="translate(-133.2003 528.502) rotate(-69.519)"
          style="fill:#f9f9f9;stroke:#000;stroke-miterlimit:10;stroke-width:15px"
        />
      </svg>