<svg xmlns="http://www.w3.org/2000/svg" height="23px" width="27px" viewBox="0 0 356.8061 305.3799"><title>Asset 3</title><g id="Layer_2" data-name="Layer 2"><g id="Layer_1-2" data-name="Layer 1"><path d="M178.1923,297.9031a7.1718,7.1718,0,0,0,4.1182-.0443c13.3505-4.8023,87.7383,23.8317,118.0043-19.0091,36.38-51.4953-32.9185-51.6617-45.0227-102.502-11.5123-48.3541-59.8657-57.1721-74.6966-56.9456-14.831-.2265-63.1844,8.5915-74.6967,56.9456-12.1042,50.84-80.3655,49.9134-45.0226,102.502C89.1655,320.9429,162.22,294.1213,178.1923,297.9031Z" style="fill:#c8217b;stroke:#000;stroke-miterlimit:10;stroke-width:5px"/><ellipse cx="43.4134" cy="136.9808" rx="38.286" ry="56.2171" transform="translate(-45.1849 23.849) rotate(-20.481)" style="fill:#c8217b;stroke:#000;stroke-miterlimit:10;stroke-width:5px"/><ellipse cx="127.3039" cy="57.882" rx="38.0644" ry="55.8916" transform="translate(-8.5134 24.5614) rotate(-10.6658)" style="fill:#c8217b;stroke:#000;stroke-miterlimit:10;stroke-width:5px"/><ellipse cx="238.0808" cy="57.9562" rx="55.843" ry="38.0312" transform="translate(137.062 281.1972) rotate(-79.3342)" style="fill:#c8217b;stroke:#000;stroke-miterlimit:10;stroke-width:5px"/><ellipse cx="313.3952" cy="136.9832" rx="56.2137" ry="38.2837" transform="translate(75.4149 382.6381) rotate(-69.519)" style="fill:#c8217b;stroke:#000;stroke-miterlimit:10;stroke-width:5px"/></g></g></svg>