<svg width="35" height="35" viewBox="0 0 35 35" fill="none" xmlns="http://www.w3.org/2000/svg">
<path fill-rule="evenodd" clip-rule="evenodd" d="M13.4326 13.8819C13.5344 13.9835 13.6153 14.1042 13.6704 14.2371C13.7255 14.3699 13.7539 14.5124 13.7539 14.6563C13.7539 14.8001 13.7255 14.9426 13.6704 15.0755C13.6153 15.2083 13.5344 15.329 13.4326 15.4306L7.64227 21.2188L13.4326 27.0069C13.638 27.2123 13.7533 27.4908 13.7533 27.7813C13.7533 28.0717 13.638 28.3503 13.4326 28.5556C13.2272 28.761 12.9487 28.8764 12.6582 28.8764C12.3678 28.8764 12.0892 28.761 11.8838 28.5556L5.32133 21.9931C5.21947 21.8915 5.13866 21.7708 5.08352 21.6379C5.02838 21.5051 5 21.3626 5 21.2188C5 21.0749 5.02838 20.9324 5.08352 20.7996C5.13866 20.6667 5.21947 20.546 5.32133 20.4444L11.8838 13.8819C11.9854 13.78 12.1061 13.6992 12.239 13.6441C12.3719 13.5889 12.5143 13.5605 12.6582 13.5605C12.8021 13.5605 12.9445 13.5889 13.0774 13.6441C13.2103 13.6992 13.331 13.78 13.4326 13.8819Z" fill="#101010"/>
<path fill-rule="evenodd" clip-rule="evenodd" d="M30.1582 7C30.4483 7 30.7265 7.11523 30.9316 7.32035C31.1367 7.52547 31.252 7.80367 31.252 8.09375V16.8438C31.252 18.2942 30.6758 19.6852 29.6502 20.7107C28.6246 21.7363 27.2336 22.3125 25.7832 22.3125H7.18945C6.89937 22.3125 6.62117 22.1973 6.41606 21.9921C6.21094 21.787 6.0957 21.5088 6.0957 21.2188C6.0957 20.9287 6.21094 20.6505 6.41606 20.4454C6.62117 20.2402 6.89937 20.125 7.18945 20.125H25.7832C26.6534 20.125 27.488 19.7793 28.1034 19.1639C28.7188 18.5486 29.0645 17.714 29.0645 16.8438V8.09375C29.0645 7.80367 29.1797 7.52547 29.3848 7.32035C29.5899 7.11523 29.8681 7 30.1582 7Z" fill="#101010"/>
</svg>
