<svg width="10" height="10" viewBox="0 0 49 49" fill="none" xmlns="http://www.w3.org/2000/svg">
<path d="M24.4898 0C10.9862 0 0 10.9883 0 24.4918C0 38.0077 10.9862 49 24.4898 49C38.0056 49 49 38.0056 49 24.4918C49 10.9883 38.0056 0 24.4898 0ZM12.0622 33.4915C14.8662 32.6325 17.7821 32.1936 20.7148 32.1889C25.6433 32.1889 30.5086 33.4384 34.7859 35.8027C35.0411 35.9415 35.2718 36.3988 35.378 36.9705C35.4801 37.5422 35.4392 38.1281 35.2718 38.4323C35.1929 38.577 35.0861 38.7046 34.9575 38.8077C34.829 38.9109 34.6812 38.9874 34.5228 39.033C34.3644 39.0786 34.1986 39.0923 34.0349 39.0733C33.8711 39.0543 33.7128 39.003 33.5691 38.9223C30.4274 37.1988 26.9715 36.1239 23.4065 35.7612C19.8415 35.3986 16.2399 35.7557 12.8155 36.8113C12.6583 36.8621 12.4926 36.8811 12.328 36.8673C12.1633 36.8534 12.0031 36.807 11.8566 36.7306C11.7101 36.6542 11.5802 36.5494 11.4746 36.4223C11.369 36.2953 11.2897 36.1485 11.2414 35.9905C11.023 35.2759 11.4742 33.6834 12.0622 33.4915ZM10.9944 24.4673C14.1621 23.6067 17.4301 23.1708 20.7127 23.1709C26.6213 23.1709 32.487 24.6 37.679 27.3073C38.0444 27.491 38.3119 27.8055 38.4344 28.1893C38.4963 28.3831 38.5188 28.5874 38.5006 28.7901C38.4823 28.9927 38.4237 29.1897 38.3282 29.3694C37.8648 30.2759 37.3217 30.8863 36.9807 30.8863C36.732 30.8852 36.487 30.8251 36.2661 30.7108C31.4666 28.205 26.129 26.9058 20.7148 26.9255C17.7032 26.9195 14.7046 27.3212 11.8008 28.1199C11.6071 28.1728 11.4049 28.1871 11.2056 28.1619C11.0064 28.1367 10.8141 28.0725 10.6397 27.973C10.4653 27.8734 10.3121 27.7405 10.1891 27.5818C10.066 27.4231 9.97545 27.2417 9.9225 27.048C9.69383 26.1864 10.2185 24.6797 10.9944 24.4673V24.4673ZM10.7188 18.5751C10.4889 18.6341 10.2497 18.6469 10.0149 18.613C9.78012 18.579 9.55437 18.4989 9.35069 18.3772C9.14702 18.2555 8.96946 18.0947 8.82826 17.9041C8.68707 17.7134 8.58503 17.4967 8.52804 17.2664C8.27692 16.2496 8.91188 15.0695 9.83471 14.8368C13.3944 13.96 17.0467 13.5151 20.7127 13.5118C27.7565 13.5118 34.5062 15.0961 40.77 18.2219C41.2004 18.4359 41.5282 18.812 41.6813 19.2676C41.8345 19.7232 41.8004 20.221 41.5867 20.6515C41.2948 21.2395 40.6618 21.8724 39.9636 21.8724C39.6898 21.8714 39.4195 21.8107 39.1714 21.6948C33.4437 18.8214 27.1207 17.3345 20.7127 17.3542C17.3746 17.3542 14.012 17.7645 10.7188 18.5751V18.5751Z" fill="white"/>
</svg>
